<svg width="56" height="39" viewBox="0 0 56 39" fill="none" xmlns="http://www.w3.org/2000/svg">
<path d="M54.5114 35.6318C55.2634 34.6398 55.7114 33.3918 55.7114 32.0478V5.9838C55.7114 5.7278 55.6954 5.4878 55.6634 5.2478L38.8154 17.3598L54.5114 35.6318Z" fill="#3179B4"/>
<path d="M33.1679 19.488L55.2319 3.632C54.3199 1.504 52.1919 0 49.7279 0H5.98389C4.3199 0 2.8319 0.672 1.7439 1.76L19.7759 16.608L22.8799 19.152C25.8239 21.584 30.0639 21.728 33.1679 19.488Z" fill="#3179B4"/>
<path d="M37.5197 18.304L34.0797 20.768C32.3357 22.032 30.2717 22.656 28.2237 22.656C25.9517 22.656 23.6957 21.888 21.8557 20.368L19.3597 18.304L3.10376 37.2959C3.96776 37.7759 4.94376 38.0479 5.99976 38.0479H49.7277C51.1197 38.0479 52.3997 37.5679 53.4237 36.7679L37.5197 18.304Z" fill="#3179B4"/>
<path d="M1.824 36.3677L18.128 17.3117L0.799999 3.02368C0.304 3.90368 0 4.91168 0 5.99968V32.0637C0 33.7437 0.703999 35.2797 1.824 36.3677Z" fill="#3179B4"/>
</svg>
