<svg width="63" height="62" viewBox="0 0 63 62" fill="none" xmlns="http://www.w3.org/2000/svg">
<path d="M29.5541 0.768555H33.4865H33.8919C38.2334 1.03172 42.4658 2.22684 46.2973 4.27153C50.5099 6.40228 54.1672 9.47503 56.9811 13.2479C59.795 17.0208 61.6888 21.3909 62.5135 26.0141C62.7365 27.1818 62.8378 28.3695 63 29.5573V33.161C62.9761 33.3505 62.9422 33.5386 62.8987 33.7247C62.6554 35.2547 62.5338 36.7847 62.1689 38.2745C60.528 45.3669 56.3503 51.6265 50.4122 55.89C46.3289 58.9592 41.5452 60.9786 36.4865 61.7686V40.328H43.7838C44.25 37.3484 44.7162 34.4293 45.1824 31.4296H36.4865C36.4865 29.3158 36.4865 27.2824 36.4865 25.2491C36.4637 24.2483 36.8062 23.2731 37.4507 22.5035C38.0952 21.7339 38.9983 21.2217 39.9932 21.0616C40.6225 20.9552 41.2605 20.908 41.8987 20.9207C43.0946 20.9207 44.3108 20.9207 45.5473 20.9207V13.3511C42.5272 12.7959 39.4464 12.6402 36.3851 12.888C34.8299 13.0122 33.3221 13.4796 31.972 14.2563C30.6218 15.033 29.4633 16.0994 28.5811 17.3775C27.2498 19.4074 26.5452 21.7797 26.5541 24.2022C26.5541 26.3966 26.5541 28.591 26.5541 30.7854V31.49H18.6284V40.3481H26.5541V61.7484H26.3514C20.0743 60.768 14.2475 57.9096 9.64865 53.5547C4.80693 49.087 1.58613 43.1564 0.486486 36.6841C0.263514 35.5365 0.162162 34.389 0 33.2616V29.5372C0.055135 29.4092 0.089349 29.2733 0.101351 29.1346C0.378471 24.8907 1.6115 20.7627 3.70946 17.0554C5.96078 12.9023 9.14176 9.31783 13.0075 6.57795C16.8731 3.83807 21.3204 2.01589 26.0068 1.25172C27.1824 1.03027 28.3784 0.909479 29.5541 0.768555Z" fill="#E0B488"/>
</svg>
