<svg width="63" height="63" viewBox="0 0 63 63" fill="none" xmlns="http://www.w3.org/2000/svg">
<path d="M29.4091 0H33.3169C33.4458 0.0524603 33.5814 0.0863705 33.7198 0.100716C38.0435 0.370115 42.2537 1.59466 46.0475 3.68621C50.2573 5.89057 53.9016 9.03681 56.6967 12.88C59.4917 16.7231 61.362 21.1595 62.1621 25.8438C62.4038 27.0322 62.5045 28.261 62.6656 29.4696V33.1356C62.6656 33.5788 62.6656 34.0018 62.5045 34.445C61.8795 40.9907 59.1679 47.1623 54.7695 52.0501C51.9966 55.2325 48.5985 57.81 44.7866 59.6225C40.9746 61.4349 36.8304 62.4433 32.6119 62.5851C27.0448 62.8871 21.5044 61.6241 16.6182 58.9391C12.4083 56.7348 8.76401 53.5885 5.96898 49.7454C3.17394 45.9022 1.30361 41.4658 0.503581 36.7816C0.282005 35.6334 0.161146 34.4651 0 33.2968V29.3689C0.0160438 29.235 0.0160438 29.0998 0 28.966C0.281491 24.638 1.50519 20.4238 3.5855 16.6182C5.79109 12.4093 8.93768 8.76574 12.7806 5.97086C16.6236 3.17599 21.0593 1.30508 25.7431 0.503581C27.0725 0.261862 28.3415 0.161146 29.4091 0ZM50.8214 31.3429H51.0833C50.9221 27.8984 50.8818 24.4136 50.5394 20.9893C50.4142 19.5946 49.985 18.2443 49.2821 17.0332C48.5791 15.8222 47.6194 14.7798 46.4705 13.9794C44.4519 12.6135 42.0584 11.9096 39.6218 11.9651C35.5931 11.8644 31.5645 11.8442 27.5358 11.8442C25.6625 11.8442 23.7892 11.8442 21.9159 12.0859C20.4873 12.1513 19.0873 12.5085 17.802 13.1356C16.5167 13.7626 15.3735 14.6462 14.4427 15.7319C12.8442 17.6956 11.9695 20.1492 11.9651 22.6813C11.8442 27.7775 11.8442 32.8738 11.9651 37.97C11.9622 39.2303 12.0498 40.4891 12.2269 41.7368C12.3937 43.099 12.8371 44.4127 13.5298 45.5973C14.2226 46.782 15.1502 47.8126 16.2556 48.6258C18.2512 50.0344 20.6417 50.7748 23.0842 50.7408C27.6567 50.7408 32.209 50.8617 36.7816 50.8617C38.4329 50.8519 40.0816 50.7307 41.7167 50.4991C43.1066 50.3345 44.4461 49.8779 45.6472 49.1594C46.8483 48.4408 47.884 47.4764 48.6862 46.3295C50.0509 44.3103 50.7547 41.9172 50.7005 39.4808C50.8617 36.8017 50.8214 34.0622 50.8214 31.3429Z" fill="#E0B488"/>
<path fill-rule="evenodd" clip-rule="evenodd" d="M31.3841 15.2285C34.1639 15.2285 36.9638 15.2285 39.7436 15.4299C40.8084 15.4098 41.8656 15.6126 42.8474 16.0254C43.8291 16.4383 44.7137 17.0519 45.4441 17.827C46.6268 19.2044 47.2645 20.967 47.2368 22.7822C47.2368 28.4828 47.2368 34.1632 47.2368 39.8436C47.2852 41.0134 47.0438 42.1772 46.5343 43.2314C46.0248 44.2855 45.2628 45.1976 44.3161 45.8865C43.0359 46.7823 41.5073 47.2543 39.945 47.2361C34.2243 47.2361 28.5238 47.2361 22.8232 47.2361C21.6523 47.2917 20.4861 47.0536 19.4307 46.5435C18.3752 46.0334 17.4641 45.2674 16.7802 44.3154C15.8917 43.0091 15.4211 41.4636 15.4307 39.8838C15.4307 34.2035 15.4307 28.5432 15.4307 22.8829C15.381 21.7108 15.6238 20.5446 16.1372 19.4897C16.6506 18.4347 17.4185 17.5241 18.3716 16.84C19.7267 15.9411 21.318 15.4644 22.9441 15.4702C25.7843 15.3292 28.5842 15.2889 31.3841 15.2285ZM41.4557 31.3431C41.4557 29.3511 40.865 27.4039 39.7584 25.7476C38.6517 24.0913 37.0787 22.8004 35.2383 22.0381C33.398 21.2758 31.3729 21.0764 29.4192 21.465C27.4655 21.8536 25.6709 22.8129 24.2624 24.2214C22.8538 25.6299 21.8946 27.4245 21.506 29.3782C21.1174 31.3319 21.3168 33.357 22.0791 35.1974C22.8414 37.0377 24.1323 38.6107 25.7886 39.7174C27.4449 40.824 29.3921 41.4147 31.3841 41.4147C34.0518 41.3987 36.6041 40.3251 38.481 38.4293C40.3579 36.5335 41.406 33.9705 41.3953 31.3028L41.4557 31.3431ZM44.2154 20.9089C44.1611 20.324 43.8904 19.7805 43.4563 19.3848C43.0222 18.9891 42.456 18.7698 41.8687 18.7698C41.2813 18.7698 40.7151 18.9891 40.281 19.3848C39.8469 19.7805 39.5762 20.324 39.522 20.9089C39.527 21.5362 39.7757 22.1369 40.2155 22.5842C40.6552 23.0315 41.2517 23.2903 41.8787 23.306C42.5021 23.2797 43.0902 23.0095 43.516 22.5535C43.9419 22.0975 44.1713 21.4923 44.1549 20.8686L44.2154 20.9089Z" fill="#E0B488"/>
<path fill-rule="evenodd" clip-rule="evenodd" d="M24.8569 31.2826C24.8649 29.9967 25.2538 28.7419 25.9744 27.6769C26.695 26.6118 27.7151 25.7842 28.9058 25.2985C30.0966 24.8128 31.4045 24.6909 32.6645 24.9481C33.9244 25.2053 35.0799 25.8302 35.985 26.7437C36.8901 27.6572 37.5042 28.8184 37.7497 30.0807C37.9952 31.343 37.8611 32.6498 37.3644 33.8359C36.8678 35.0221 36.0307 36.0345 34.959 36.7452C33.8873 37.4559 32.629 37.8331 31.3431 37.8292C30.4854 37.8319 29.6358 37.664 28.8437 37.3352C28.0516 37.0064 27.3328 36.5234 26.7291 35.9141C26.1255 35.3049 25.6491 34.5816 25.3277 33.7865C25.0063 32.9913 24.8463 32.1402 24.8569 31.2826Z" fill="#E0B488"/>
</svg>
