<svg width="80" height="73" viewBox="0 0 80 73" fill="none" xmlns="http://www.w3.org/2000/svg">
<path d="M63.8461 19.3918C63.8461 13.5956 59.1324 8.88184 53.3361 8.88184C47.5398 8.88184 42.8232 13.5956 42.8232 19.3918C42.8232 25.1881 47.5398 29.9019 53.3361 29.9019C59.1324 29.9019 63.8461 25.1881 63.8461 19.3918ZM47.6535 19.3918C47.6535 16.2593 50.2036 13.7121 53.3361 13.7121C56.4686 13.7121 59.0159 16.2593 59.0159 19.3918C59.0159 22.5244 56.4686 25.0716 53.3361 25.0716C50.2036 25.0716 47.6535 22.5244 47.6535 19.3918Z" fill="#3179B4"/>
<path d="M67.0592 34.4055C70.4077 29.4033 73.1439 24.0276 73.1439 19.8082C73.1439 8.8862 64.2563 0 53.3329 0C42.4137 0 33.5303 8.8862 33.5303 19.8082C33.5303 24.029 36.2608 29.4019 39.6093 34.404L5.77213 34.4026L0 72.6509H70.4361C75.7082 72.6509 80 68.3592 80 63.0871L74.5333 34.4083L67.0592 34.4055ZM53.3329 4.83023C61.5926 4.83023 68.3137 11.5485 68.3137 19.8082C68.3137 26.1173 58.7072 38.0082 53.3329 43.9295C47.9614 38.0111 38.3606 26.1273 38.3606 19.8082C38.3606 11.5471 45.0774 4.83023 53.3329 4.83023ZM51.5926 49.1448L53.3329 50.9504L55.0732 49.1448C55.9114 48.2767 59.6903 44.289 63.5772 39.2357H70.5441L73.1439 52.7745L66.1983 57.7909L22.3341 39.2343L43.0942 39.2371C46.9783 44.289 50.7572 48.2767 51.5926 49.1448ZM61.621 61.0996L52.3171 67.8193H13.161L30.3196 47.8548L61.621 61.0996ZM9.92754 39.2343H9.93607L25.6471 45.8815L6.79216 67.8207H5.61301L9.92754 39.2343ZM70.4361 67.8207H60.564L74.1497 58.0082L75.1655 63.2945C75.0561 65.8091 72.9777 67.8207 70.4361 67.8207Z" fill="#3179B4"/>
</svg>
