<svg width="319" height="157" viewBox="0 0 319 157" fill="none" xmlns="http://www.w3.org/2000/svg">
<g clip-path="url(#clip0)">
<path d="M122.38 156.377H105.975C105.712 156.377 105.46 156.274 105.272 156.089C105.085 155.904 104.977 155.652 104.972 155.388V124.886C104.972 124.618 105.078 124.362 105.266 124.173C105.454 123.984 105.709 123.878 105.975 123.878H121.067C123.85 123.728 126.587 124.63 128.741 126.406C129.639 127.221 130.347 128.224 130.817 129.345C131.286 130.466 131.505 131.676 131.457 132.891C131.5 134.136 131.226 135.372 130.661 136.481C130.097 137.59 129.26 138.536 128.231 139.23C128.166 139.271 128.112 139.328 128.074 139.395C128.036 139.462 128.015 139.537 128.012 139.615C128.016 139.694 128.042 139.77 128.087 139.835C128.132 139.899 128.195 139.95 128.267 139.981C129.697 140.538 130.915 141.533 131.75 142.825C132.584 144.118 132.992 145.642 132.915 147.181C132.968 148.441 132.74 149.696 132.248 150.857C131.756 152.017 131.013 153.052 130.072 153.886C127.91 155.662 125.167 156.563 122.38 156.414V156.377ZM123.091 134.082C123.105 133.747 123.052 133.412 122.937 133.098C122.821 132.783 122.644 132.495 122.416 132.25C122.157 132.004 121.85 131.816 121.514 131.696C121.178 131.576 120.821 131.528 120.466 131.554H114.013C113.904 131.553 113.795 131.576 113.695 131.62C113.594 131.664 113.504 131.729 113.43 131.81C113.351 131.886 113.287 131.977 113.243 132.078C113.2 132.178 113.176 132.287 113.175 132.397V135.896C113.176 136.006 113.2 136.114 113.243 136.215C113.287 136.315 113.351 136.406 113.43 136.482C113.505 136.561 113.596 136.623 113.696 136.664C113.797 136.705 113.905 136.724 114.013 136.72H120.01C122.07 136.72 123.091 135.859 123.091 134.137V134.082ZM124.531 146.008C124.531 144.176 123.51 143.224 121.468 143.224H114.013C113.794 143.233 113.586 143.324 113.43 143.48C113.275 143.637 113.184 143.846 113.175 144.066V148.097C113.176 148.206 113.2 148.315 113.243 148.416C113.287 148.516 113.351 148.607 113.43 148.683C113.504 148.764 113.594 148.829 113.695 148.873C113.795 148.917 113.904 148.94 114.013 148.939H121.468C123.51 148.939 124.531 147.968 124.531 146.008Z" fill="#E0B488"/>
<path d="M152.109 157C149.868 157.03 147.643 156.608 145.568 155.758C143.492 154.908 141.607 153.649 140.024 152.054C138.425 150.515 137.153 148.666 136.283 146.62C135.414 144.573 134.966 142.371 134.966 140.146C134.966 137.921 135.414 135.719 136.283 133.672C137.153 131.626 138.425 129.777 140.024 128.238C143.257 125.056 147.602 123.274 152.127 123.274C156.652 123.274 160.997 125.056 164.23 128.238C165.829 129.777 167.102 131.626 167.971 133.672C168.84 135.719 169.288 137.921 169.288 140.146C169.288 142.371 168.84 144.573 167.971 146.62C167.102 148.666 165.829 150.515 164.23 152.054C162.645 153.655 160.754 154.918 158.671 155.768C156.588 156.618 154.356 157.037 152.109 157ZM152.109 131.352C150.67 131.366 149.256 131.734 147.992 132.425C146.728 133.116 145.652 134.108 144.858 135.315C144.065 136.521 143.579 137.906 143.443 139.345C143.306 140.785 143.524 142.237 144.076 143.572C144.629 144.908 145.499 146.086 146.611 147.004C147.723 147.923 149.042 148.552 150.453 148.838C151.863 149.124 153.322 149.057 154.701 148.644C156.08 148.23 157.337 147.482 158.361 146.466C159.988 144.787 160.898 142.535 160.898 140.192C160.898 137.848 159.988 135.597 158.361 133.917C157.549 133.082 156.576 132.423 155.5 131.982C154.425 131.541 153.27 131.326 152.109 131.352Z" fill="#E0B488"/>
<path d="M188.327 157C186.086 157.028 183.862 156.605 181.787 155.755C179.711 154.906 177.826 153.647 176.242 152.054C174.643 150.515 173.371 148.666 172.501 146.62C171.632 144.573 171.184 142.371 171.184 140.146C171.184 137.921 171.632 135.719 172.501 133.672C173.371 131.626 174.643 129.777 176.242 128.238C179.48 125.044 183.836 123.254 188.372 123.254C192.909 123.254 197.265 125.044 200.503 128.238C202.102 129.777 203.374 131.626 204.244 133.672C205.113 135.719 205.561 137.921 205.561 140.146C205.561 142.371 205.113 144.573 204.244 146.62C203.374 148.666 202.102 150.515 200.503 152.054C198.914 153.656 197.02 154.919 194.934 155.769C192.848 156.619 190.614 157.037 188.363 157H188.327ZM188.363 131.352C186.925 131.369 185.513 131.739 184.251 132.432C182.988 133.125 181.915 134.119 181.124 135.326C180.333 136.533 179.849 137.917 179.714 139.357C179.58 140.796 179.799 142.246 180.353 143.58C180.906 144.914 181.777 146.092 182.889 147.009C184.001 147.925 185.32 148.554 186.73 148.839C188.14 149.124 189.598 149.056 190.976 148.643C192.354 148.229 193.61 147.482 194.634 146.466C196.26 144.787 197.171 142.535 197.171 140.192C197.171 137.848 196.26 135.597 194.634 133.917C193.819 133.081 192.842 132.422 191.763 131.981C190.685 131.54 189.527 131.326 188.363 131.352Z" fill="#E0B488"/>
<path d="M216.233 156.377H209.926C209.667 156.372 209.419 156.267 209.236 156.082C209.052 155.898 208.947 155.649 208.942 155.388V124.886C208.942 124.621 209.045 124.368 209.229 124.179C209.413 123.991 209.664 123.883 209.926 123.878H216.233C216.499 123.878 216.754 123.984 216.942 124.173C217.13 124.362 217.236 124.618 217.236 124.886V134.265C217.232 134.329 217.25 134.393 217.287 134.446C217.323 134.499 217.375 134.538 217.436 134.558C217.482 134.597 217.54 134.618 217.6 134.618C217.66 134.618 217.718 134.597 217.764 134.558L226.605 124.574C226.806 124.335 227.058 124.144 227.341 124.014C227.625 123.884 227.933 123.819 228.245 123.823H236.958C237.043 123.819 237.127 123.845 237.196 123.894C237.266 123.944 237.316 124.016 237.341 124.098C237.385 124.166 237.408 124.246 237.408 124.327C237.408 124.408 237.385 124.488 237.341 124.556L225.839 137.123C225.669 137.304 225.573 137.543 225.573 137.792C225.573 138.041 225.669 138.28 225.839 138.46L238.197 155.534C238.246 155.611 238.272 155.7 238.272 155.791C238.272 155.882 238.246 155.971 238.197 156.047C238.159 156.135 238.095 156.209 238.013 156.258C237.932 156.308 237.837 156.33 237.742 156.322H229.466C229.16 156.334 228.856 156.268 228.582 156.13C228.308 155.992 228.073 155.788 227.899 155.534L219.915 144.726C219.852 144.64 219.769 144.57 219.674 144.523C219.579 144.475 219.475 144.45 219.368 144.451C219.269 144.442 219.169 144.458 219.077 144.496C218.985 144.534 218.904 144.594 218.84 144.671L217.746 145.88C217.405 146.283 217.224 146.798 217.236 147.327V155.315C217.231 155.579 217.123 155.83 216.936 156.015C216.748 156.2 216.496 156.304 216.233 156.304" fill="#E0B488"/>
<path d="M240.767 155.388V124.886C240.765 124.753 240.789 124.621 240.84 124.498C240.89 124.375 240.964 124.264 241.059 124.171C241.25 123.986 241.504 123.881 241.77 123.878H248.077C248.339 123.883 248.59 123.991 248.774 124.179C248.958 124.368 249.061 124.621 249.061 124.886V155.388C249.056 155.649 248.951 155.898 248.767 156.082C248.584 156.267 248.336 156.372 248.077 156.377H241.77C241.638 156.38 241.507 156.355 241.384 156.305C241.262 156.254 241.151 156.179 241.059 156.084C240.963 155.996 240.887 155.888 240.837 155.768C240.786 155.648 240.763 155.518 240.767 155.388Z" fill="#E0B488"/>
<path d="M262.294 139.102V155.388C262.289 155.652 262.182 155.904 261.994 156.089C261.807 156.274 261.554 156.377 261.292 156.377H255.021C254.762 156.372 254.514 156.267 254.331 156.082C254.147 155.898 254.042 155.649 254.037 155.388V124.886C254.037 124.621 254.14 124.368 254.324 124.179C254.508 123.991 254.759 123.883 255.021 123.878H260.052C260.366 123.862 260.679 123.928 260.96 124.069C261.241 124.21 261.481 124.422 261.656 124.684L274.981 141.392C275.026 141.465 275.098 141.518 275.181 141.538C275.219 141.54 275.258 141.533 275.293 141.517C275.327 141.501 275.358 141.477 275.382 141.447C275.407 141.369 275.407 141.286 275.382 141.208V124.886C275.382 124.621 275.485 124.368 275.669 124.179C275.853 123.991 276.103 123.883 276.366 123.878H282.636C282.765 123.878 282.893 123.904 283.012 123.954C283.131 124.004 283.239 124.078 283.329 124.171C283.426 124.263 283.503 124.374 283.557 124.496C283.61 124.619 283.638 124.752 283.639 124.886V155.388C283.64 155.519 283.613 155.65 283.559 155.77C283.506 155.89 283.427 155.997 283.329 156.084C283.241 156.181 283.134 156.257 283.015 156.307C282.895 156.358 282.766 156.382 282.636 156.377H277.624C277.308 156.398 276.993 156.337 276.709 156.199C276.424 156.061 276.181 155.851 276.001 155.589L262.695 138.937C262.673 138.895 262.641 138.859 262.604 138.83C262.566 138.802 262.523 138.782 262.476 138.772C262.445 138.757 262.411 138.75 262.376 138.75C262.342 138.75 262.307 138.757 262.276 138.772C262.25 138.849 262.25 138.933 262.276 139.01" fill="#E0B488"/>
<path d="M310.834 144.341H304.4C304.27 144.346 304.141 144.322 304.021 144.271C303.902 144.221 303.795 144.144 303.707 144.048C303.608 143.958 303.53 143.847 303.476 143.724C303.423 143.601 303.396 143.468 303.397 143.333V138.424C303.396 138.292 303.423 138.162 303.477 138.042C303.53 137.922 303.609 137.815 303.707 137.728C303.791 137.624 303.897 137.541 304.017 137.484C304.136 137.427 304.267 137.398 304.4 137.398H317.998C318.26 137.398 318.513 137.501 318.7 137.687C318.888 137.872 318.995 138.123 319 138.387V155.351C318.995 155.615 318.888 155.867 318.7 156.052C318.513 156.237 318.26 156.341 317.998 156.34H313.514C313.381 156.343 313.25 156.318 313.128 156.268C313.006 156.218 312.895 156.143 312.803 156.047C312.713 155.956 312.642 155.847 312.595 155.727C312.548 155.608 312.526 155.48 312.529 155.351V154.142C312.535 154.08 312.518 154.017 312.481 153.966C312.444 153.916 312.39 153.881 312.329 153.867C312.272 153.849 312.211 153.85 312.156 153.87C312.1 153.89 312.052 153.928 312.019 153.977C311.108 154.971 309.969 155.725 308.702 156.176C307.31 156.706 305.833 156.973 304.345 156.963C302.101 156.994 299.874 156.572 297.795 155.722C295.716 154.873 293.828 153.613 292.242 152.017C290.643 150.478 289.371 148.63 288.501 146.583C287.632 144.537 287.184 142.334 287.184 140.109C287.184 137.884 287.632 135.682 288.501 133.635C289.371 131.589 290.643 129.74 292.242 128.201C294.744 125.733 297.936 124.089 301.391 123.49C304.846 122.891 308.401 123.365 311.581 124.849C313.82 125.872 315.81 127.372 317.414 129.246C317.496 129.347 317.556 129.465 317.59 129.591C317.625 129.717 317.633 129.849 317.615 129.978C317.607 130.101 317.569 130.22 317.506 130.325C317.442 130.43 317.355 130.519 317.25 130.583L312.147 134.027C311.921 134.208 311.634 134.292 311.347 134.261C311.06 134.23 310.797 134.087 310.615 133.862C308.947 132.297 306.739 131.442 304.457 131.478C302.174 131.514 299.994 132.438 298.375 134.056C296.757 135.673 295.825 137.859 295.775 140.152C295.726 142.446 296.563 144.67 298.111 146.356C298.921 147.207 299.898 147.878 300.981 148.326C302.064 148.775 303.229 148.99 304.4 148.958C305.704 148.989 306.997 148.699 308.163 148.111C309.329 147.523 310.334 146.656 311.089 145.587C311.243 145.388 311.326 145.143 311.326 144.891V144.726C311.326 144.451 311.199 144.304 310.925 144.304" fill="#E0B488"/>
<path d="M318.69 107.244L299.041 79.7641C298.02 78.1886 298.294 76.9978 299.861 76.1001C305.839 72.862 310.7 67.8802 313.805 61.8107C316.978 55.5757 318.604 48.662 318.544 41.659C318.544 30.2459 315.136 21.086 308.301 13.6665C301.465 6.24702 291.531 2.7846 278.426 2.7846H229.375C229.035 2.7526 228.693 2.80236 228.376 2.92979C228.059 3.05721 227.777 3.25863 227.553 3.51739C226.915 4.15858 227.006 4.70817 227.006 5.62415V106.694C227.006 107.61 227.006 108.05 227.553 108.691C228.099 109.332 228.555 109.314 229.375 109.314H250.118C251.023 109.448 251.944 109.225 252.688 108.691C253.326 108.05 253.873 107.61 253.873 106.694V83.9043C253.788 83.0927 254.002 82.278 254.475 81.6144C255.021 81.0648 255.441 80.4236 256.17 80.4236H264.682C265.569 80.4476 266.436 80.6949 267.204 81.143C267.971 81.5911 268.615 82.2256 269.075 82.9883L285.844 106.804C286.428 107.641 287.211 108.317 288.121 108.771C289.032 109.226 290.041 109.444 291.057 109.405H317.305C318.034 109.405 318.544 109.405 318.818 108.856C318.953 108.619 319.014 108.347 318.991 108.075C318.968 107.804 318.863 107.545 318.69 107.335V107.244ZM288.323 51.6433C285.844 54.2997 282.035 55.1424 276.913 55.1424H256.17C255.441 55.1424 255.021 55.3622 254.475 54.8126C254.254 54.652 254.082 54.434 253.976 54.1822C253.87 53.9304 253.834 53.6543 253.873 53.3837V30.1909C253.831 29.8903 253.864 29.584 253.969 29.2994C254.074 29.0148 254.248 28.7609 254.475 28.5604C254.695 28.3441 254.964 28.1844 255.26 28.0951C255.555 28.0058 255.867 27.9895 256.17 28.0475H276.913C286.993 28.0475 292.023 32.316 292.023 41.9888C292.098 43.7623 291.814 45.5327 291.187 47.1923C290.56 48.852 289.605 50.3663 288.378 51.6433" fill="#3179B4"/>
<path d="M54.0993 35.7967C53.7306 36.2487 53.5291 36.8152 53.5291 37.3997C53.5291 37.9842 53.7306 38.5507 54.0993 39.0027C54.6279 39.5523 56.1408 40.0103 64.726 41.1644C66.9862 41.4758 72.4909 41.9705 79.308 42.5201L79.5085 30.4107C72.6365 30.6234 65.789 31.3397 59.0208 32.5541C57.0272 32.9605 55.2652 34.1214 54.0993 35.7967Z" fill="#E0B488"/>
<path d="M82.261 30.3008V42.7582C91.3748 43.4544 102.165 44.2421 111.024 44.8467C110.095 40.104 108.57 35.4993 106.485 31.1435C103.678 30.7955 101.017 30.5573 99.7594 30.4474C93.9339 30.0711 88.092 30.0222 82.261 30.3008Z" fill="#3179B4"/>
<path d="M64.4352 75.294L62.8676 75.1108C61.7602 78.0027 59.7418 80.451 57.1206 82.0822C54.4993 83.7134 51.419 84.4379 48.3497 84.1452C45.2805 83.8525 42.3908 82.5586 40.1215 80.461C37.8522 78.3635 36.3281 75.5773 35.7815 72.5278L34.2322 72.3812H31.2246C30.4259 72.2476 29.698 71.8397 29.1649 71.2271C27.6324 69.0362 26.4058 66.6446 25.5194 64.119C25.5408 63.8987 25.6129 63.6863 25.7299 63.4987C25.847 63.3112 26.0058 63.1535 26.1938 63.0382C26.1118 62.3322 26.1118 61.619 26.1938 60.9131C26.3036 58.9123 26.5595 56.9223 26.9594 54.9592C27.6591 54.1765 28.4554 53.487 29.329 52.9073H29.9669C31.3728 52.8236 32.7598 52.5399 34.0864 52.0646C37.0069 50.5017 39.7719 48.6613 42.3434 46.5687C42.3434 46.3489 42.3434 46.184 41.9424 45.9642C39.5475 45.4533 37.0967 45.2562 34.6514 45.3779C33.5446 45.4644 32.4432 45.6112 31.3522 45.8176V45.9092C31.3522 45.9092 32.6646 44.0772 32.8834 43.7292C33.0421 43.54 33.2415 43.3897 33.4666 43.2895V43.1979C34.071 43.2812 34.6795 43.3301 35.2894 43.3445C35.5993 43.3445 43.9839 34.4228 43.9475 34.3128C43.911 34.2029 43.0725 34.1846 43.0725 34.1846C42.7098 34.0223 42.3568 33.8388 42.0153 33.635C41.7784 33.4518 40.9399 32.9022 41.0675 32.5358C41.1951 32.1694 63.7972 28.8719 74.351 27.9376C84.9047 27.0033 99.2316 27.9376 104.299 27.9376C94.5471 10.0026 76.5565 0 56.087 0C45.8861 0.0179714 35.8844 2.83994 27.1646 8.16043C18.4447 13.4809 11.339 21.0972 6.61649 30.1849C1.894 39.2726 -0.265306 49.4854 0.372305 59.7179C1.00992 69.9504 4.42016 79.8127 10.2339 88.2371C16.0476 96.6616 24.0433 103.327 33.3555 107.513C42.6676 111.698 52.9415 113.244 63.0649 111.983C73.1884 110.721 82.7757 106.701 90.7891 100.357C98.8025 94.0127 104.937 85.5865 108.528 75.9902C91.5942 75.6421 67.5521 75.3124 64.4352 75.294Z" fill="#3179B4"/>
<path d="M216.908 106.859L176.151 5.58751C175.842 4.66212 175.221 3.87407 174.396 3.35911C173.571 2.84414 172.593 2.63449 171.631 2.76627H151.052C150.101 2.63243 149.134 2.83045 148.311 3.32727C147.488 3.82408 146.86 4.58958 146.531 5.49591L133.152 38.6363C135.819 40.1916 138.563 41.6102 141.373 42.8865C141.877 42.8637 142.378 42.7901 142.868 42.6666C142.868 42.6666 144.927 42.5384 145.875 42.575C149.099 42.9208 152.296 43.4839 155.445 44.2604C163.36 46.0994 171.114 48.5807 178.63 51.6799C182.148 53.5119 182.567 54.8126 182.567 54.8126C179.991 53.9075 177.353 53.1912 174.675 52.6692C172.159 52.3761 171.503 52.6692 171.339 53.347C171.175 54.0249 175.203 58.2567 176.807 59.1177C178.955 59.7334 181.219 59.8151 183.406 59.3559C183.807 59.1177 184.116 58.1101 184.116 58.1101C184.544 58.4602 184.935 58.853 185.283 59.2826C185.536 60.418 185.616 61.5855 185.52 62.745C185.52 63.0198 185.174 63.2213 184.809 63.3862C184.633 65.8257 184.633 68.2747 184.809 70.7141L185.247 70.9706C185.447 71.1172 185.593 71.7767 183.843 73.0041C182.174 74.2602 180.332 75.266 178.375 75.9902C176.935 76.3749 171.685 76.9978 171.412 76.9978C171.138 76.9978 171.23 75.8803 171.23 75.8803H167.693C166.573 78.4227 164.736 80.5793 162.409 82.0829C160.082 83.5866 157.367 84.3714 154.601 84.3402C151.835 84.309 149.138 83.4632 146.845 81.9074C144.553 80.3516 142.764 78.1542 141.701 75.5872H139.149C139.149 75.5872 139.149 76.8512 138.876 76.9611C138.602 77.0711 134.228 76.9611 122.908 76.4665L117.951 76.2833L105.556 107.042C105.401 107.333 105.339 107.665 105.379 107.993C105.418 108.32 105.556 108.628 105.775 108.874C106.176 109.515 106.795 109.515 107.597 109.515H130.983C131.913 109.652 132.861 109.457 133.663 108.966C134.465 108.474 135.071 107.716 135.376 106.822L139.167 96.3068C139.35 95.429 139.815 94.636 140.49 94.05C141.165 93.464 142.013 93.1176 142.904 93.0642H179.742C180.62 93.1672 181.444 93.5442 182.098 94.1423C182.752 94.7403 183.203 95.5293 183.387 96.3984L187.033 106.328C187.319 107.252 187.91 108.052 188.709 108.595C189.507 109.137 190.465 109.391 191.426 109.314H214.757C215.595 109.314 216.197 109.314 216.58 108.691C216.771 108.431 216.891 108.124 216.926 107.802C216.961 107.48 216.911 107.155 216.78 106.859" fill="#3179B4"/>
</g>
<defs>
<clipPath id="clip0">
<rect width="319" height="157" fill="white"/>
</clipPath>
</defs>
</svg>
