<svg width="73" height="44" viewBox="0 0 73 44" fill="none" xmlns="http://www.w3.org/2000/svg">
<g clip-path="url(#clip0)">
<path fill-rule="evenodd" clip-rule="evenodd" d="M36.47 38.2C40.4543 41.8679 45.6745 43.8995 51.09 43.89C56.8291 43.7675 62.2918 41.4016 66.3073 37.2995C70.3228 33.1973 72.5715 27.6854 72.5715 21.945C72.5715 16.2046 70.3228 10.6927 66.3073 6.59054C62.2918 2.48839 56.8291 0.12252 51.09 2.95715e-06C45.6745 -0.00954122 40.4543 2.02213 36.47 5.69C34.2027 7.74749 32.3908 10.2566 31.1509 13.056C29.911 15.8554 29.2705 18.8833 29.2705 21.945C29.2705 25.0067 29.911 28.0346 31.1509 30.834C32.3908 33.6334 34.2027 36.1425 36.47 38.2Z" fill="#FCB131"/>
<path fill-rule="evenodd" clip-rule="evenodd" d="M70.0001 34.17C69.9988 34.0803 70.0154 33.9913 70.0491 33.9082C70.0828 33.8251 70.1329 33.7496 70.1963 33.6862C70.2597 33.6228 70.3352 33.5727 70.4183 33.539C70.5014 33.5053 70.5904 33.4887 70.6801 33.49C70.7719 33.486 70.8636 33.5005 70.9496 33.5329C71.0356 33.5653 71.1141 33.6147 71.1805 33.6783C71.2468 33.7418 71.2996 33.8181 71.3356 33.9027C71.3717 33.9872 71.3902 34.0781 71.3901 34.17C71.4019 34.2683 71.3928 34.3679 71.3632 34.4624C71.3337 34.5569 71.2845 34.644 71.2188 34.718C71.1531 34.7921 71.0725 34.8514 70.9822 34.8919C70.8919 34.9325 70.7941 34.9535 70.6951 34.9535C70.5961 34.9535 70.4983 34.9325 70.408 34.8919C70.3178 34.8514 70.2371 34.7921 70.1715 34.718C70.1058 34.644 70.0565 34.5569 70.027 34.4624C69.9975 34.3679 69.9883 34.2683 70.0001 34.17ZM70.6801 34.74C70.8287 34.7349 70.9697 34.6729 71.0739 34.5668C71.1781 34.4608 71.2376 34.3187 71.2401 34.17C71.2349 34.0259 71.1733 33.8896 71.0685 33.7904C70.9638 33.6913 70.8243 33.6373 70.6801 33.64C70.5404 33.6426 70.407 33.6992 70.3082 33.7981C70.2093 33.8969 70.1527 34.0302 70.1501 34.17C70.1521 34.3138 70.2074 34.4518 70.3053 34.5571C70.4032 34.6624 70.5368 34.7276 70.6801 34.74ZM70.6001 34.51H70.4501V33.87H70.7101C70.7619 33.8517 70.8184 33.8517 70.8701 33.87C70.9401 33.87 70.9401 33.94 70.9401 34.02C70.9401 34.1 70.9401 34.17 70.8301 34.17L70.9801 34.47H70.7901L70.7101 34.21H70.6001V34.09H70.7501C70.7501 34.09 70.7501 34.09 70.7501 34.02C70.7501 33.95 70.7501 34.02 70.7501 33.94H70.6001V34.47V34.51Z" fill="#FCB131"/>
<path fill-rule="evenodd" clip-rule="evenodd" d="M43.5101 19.63C43.4259 18.8443 43.3024 18.0633 43.1401 17.29H29.8001C29.9501 16.5 30.1801 15.75 30.4001 15H42.5001C42.2301 14.2 41.9301 13.41 41.5901 12.66H31.3501C31.7201 11.87 32.1401 11.08 32.5901 10.32H40.3101C39.8144 9.50701 39.2596 8.73159 38.6501 8H34.2501C34.9301 7.16831 35.6722 6.3894 36.4701 5.67C33.8279 3.31062 30.6524 1.62801 27.2165 0.766751C23.7805 -0.0945096 20.1868 -0.108669 16.7441 0.72549C13.3015 1.55965 10.1128 3.21718 7.45217 5.55567C4.79151 7.89415 2.73838 10.8437 1.46922 14.1508C0.200058 17.4579 -0.247194 21.0236 0.165894 24.5417C0.578983 28.0598 1.84006 31.4251 3.84077 34.3482C5.84147 37.2714 8.52199 39.6651 11.652 41.3236C14.782 42.9822 18.2678 43.856 21.8101 43.87C27.2345 43.8833 32.4663 41.8598 36.4701 38.2C37.2572 37.4929 37.9862 36.7238 38.6501 35.9H34.2501C33.6518 35.1564 33.0975 34.3784 32.5901 33.57H40.3101C40.797 32.8245 41.225 32.0421 41.5901 31.23H31.3501C30.9754 30.482 30.6416 29.7142 30.3501 28.93H42.5001C42.7601 28.18 42.9501 27.39 43.1401 26.6C43.3047 25.8271 43.4282 25.046 43.5101 24.26C43.591 23.496 43.6311 22.7283 43.6301 21.96C43.6311 21.1818 43.591 20.404 43.5101 19.63Z" fill="#ED1B2E"/>
<path fill-rule="evenodd" clip-rule="evenodd" d="M70.0001 27.05C69.9883 26.9517 69.9975 26.8521 70.027 26.7576C70.0565 26.6631 70.1058 26.576 70.1715 26.502C70.2371 26.4279 70.3178 26.3687 70.408 26.3281C70.4983 26.2875 70.5961 26.2665 70.6951 26.2665C70.7941 26.2665 70.8919 26.2875 70.9822 26.3281C71.0725 26.3687 71.1531 26.4279 71.2188 26.502C71.2845 26.576 71.3337 26.6631 71.3632 26.7576C71.3928 26.8521 71.4019 26.9517 71.3901 27.05C71.4019 27.1483 71.3928 27.2479 71.3632 27.3424C71.3337 27.4369 71.2845 27.524 71.2188 27.598C71.1531 27.6721 71.0725 27.7313 70.9822 27.7719C70.8919 27.8125 70.7941 27.8335 70.6951 27.8335C70.5961 27.8335 70.4983 27.8125 70.408 27.7719C70.3178 27.7313 70.2371 27.6721 70.1715 27.598C70.1058 27.524 70.0565 27.4369 70.027 27.3424C69.9975 27.2479 69.9883 27.1483 70.0001 27.05ZM70.6801 27.58C70.8207 27.58 70.9555 27.5242 71.0549 27.4248C71.1543 27.3254 71.2101 27.1906 71.2101 27.05C71.2101 26.9094 71.1543 26.7746 71.0549 26.6752C70.9555 26.5758 70.8207 26.52 70.6801 26.52C70.5396 26.52 70.4047 26.5758 70.3054 26.6752C70.206 26.7746 70.1501 26.9094 70.1501 27.05C70.1501 27.1906 70.206 27.3254 70.3054 27.4248C70.4047 27.5242 70.5396 27.58 70.6801 27.58ZM70.6001 27.35H70.4501V26.75H70.8701C70.9401 26.75 70.9401 26.86 70.9401 26.94C70.9332 26.9713 70.9199 27.0008 70.901 27.0266C70.882 27.0524 70.8579 27.074 70.8301 27.09L70.9801 27.35H70.7901L70.7101 27.12H70.6001V27H70.6801H70.7501C70.7501 27 70.7501 27 70.7501 26.93C70.7501 26.93 70.7501 26.93 70.6801 26.93H70.6001V27.42V27.35Z" fill="white"/>
<path fill-rule="evenodd" clip-rule="evenodd" d="M29.0501 28.29C28.4754 28.4656 27.8805 28.5664 27.2801 28.59C27.0222 28.6033 26.7645 28.5591 26.5258 28.4605C26.2871 28.3619 26.0734 28.2114 25.9001 28.0199C25.7268 27.8284 25.5983 27.6007 25.5239 27.3534C25.4495 27.1061 25.4311 26.8453 25.4701 26.59C25.4748 26.3121 25.4982 26.0348 25.5401 25.76L25.6901 24.89L25.8101 24.18L26.8101 18H29.0701L28.8101 19.35H30.2401L29.9001 21.61H28.4801L27.8801 25.31C27.8655 25.4329 27.8655 25.5571 27.8801 25.68C27.8801 26.17 28.1101 26.36 28.6701 26.36C28.9114 26.3535 29.152 26.3301 29.3901 26.29L29.0901 28.29H29.0501Z" fill="#003473"/>
<path fill-rule="evenodd" clip-rule="evenodd" d="M36.3599 28.22C35.572 28.4407 34.7582 28.555 33.9399 28.56C31.3799 28.56 29.9399 27.2 29.9399 24.56C29.9399 21.43 31.6799 19.17 34.0899 19.17C34.5219 19.145 34.9541 19.2137 35.3569 19.3713C35.7598 19.529 36.1238 19.772 36.424 20.0835C36.7241 20.3951 36.9534 20.7679 37.0959 21.1764C37.2385 21.5849 37.291 22.0193 37.2499 22.45C37.2451 23.1868 37.1613 23.921 36.9999 24.64H32.2499C32.2349 24.7394 32.2349 24.8406 32.2499 24.94C32.2499 26 32.9699 26.52 34.3199 26.52C35.1514 26.5226 35.9736 26.3452 36.7299 26L36.3599 28.26V28.22ZM34.9999 22.83V22.38C35.0287 22.2236 35.0197 22.0625 34.9738 21.9103C34.9278 21.758 34.8462 21.6189 34.7357 21.5045C34.6252 21.3901 34.489 21.3037 34.3385 21.2525C34.1879 21.2013 34.0273 21.1867 33.8699 21.21C33.1199 21.21 32.5899 21.78 32.3599 22.83H34.9999Z" fill="#003473"/>
<path fill-rule="evenodd" clip-rule="evenodd" d="M10.9601 28.41H8.63014L9.98014 19.85L6.93014 28.41H5.31014L5.12014 19.89L3.69014 28.41H1.39014L3.24014 17.29H6.67014L6.74014 24.15L9.04014 17.29H12.8101L10.9601 28.41Z" fill="#003473"/>
<path fill-rule="evenodd" clip-rule="evenodd" d="M16.65 24.38C16.5005 24.3631 16.3495 24.3631 16.2 24.38C14.84 24.38 14.2 24.9 14.2 25.73C14.1872 25.8511 14.2003 25.9735 14.2384 26.0892C14.2765 26.2049 14.3388 26.3111 14.421 26.4009C14.5033 26.4908 14.6036 26.5621 14.7155 26.6102C14.8274 26.6583 14.9482 26.6821 15.07 26.68C16.2 26.68 16.65 25.73 16.69 24.42L16.65 24.38ZM18.54 28.38H16.54V27.43C16.2547 27.8122 15.8757 28.1143 15.4394 28.307C15.0032 28.4997 14.5246 28.5765 14.05 28.53C13.7471 28.5074 13.4517 28.4247 13.1811 28.2868C12.9104 28.1489 12.6699 27.9586 12.4736 27.7268C12.2772 27.4951 12.1289 27.2266 12.0373 26.937C11.9457 26.6474 11.9126 26.3425 11.94 26.04C11.947 25.6429 12.011 25.2489 12.13 24.87C12.51 23.48 13.9 22.61 16.05 22.57C16.3998 22.552 16.7502 22.552 17.1 22.57C17.1592 22.3757 17.1863 22.173 17.18 21.97C17.18 21.37 16.69 21.18 15.6 21.18C14.9214 21.17 14.2458 21.2714 13.6 21.48L13.26 21.55H13.11L13.45 19.55C14.3347 19.2411 15.2631 19.0757 16.2 19.06C18.2 19.06 19.32 20 19.32 21.73C19.3451 22.3222 19.3083 22.9154 19.21 23.5L18.68 26.74L18.61 27.31V27.76V28.06V28.33L18.54 28.38Z" fill="#003473"/>
<path fill-rule="evenodd" clip-rule="evenodd" d="M47.7299 19.44C48.4715 19.4657 49.1957 19.6717 49.8399 20.04L50.2599 17.63C50.0614 17.5439 49.8576 17.4704 49.6499 17.41L48.7099 17.14C48.353 17.0525 47.9873 17.0055 47.6199 17C46.7412 16.9058 45.8538 17.0618 45.0599 17.45C44.5399 17.7872 44.0688 18.1943 43.6599 18.66L43.3599 18.58L40.9999 20.31L41.1199 19.36H38.5799L37.1099 28.41H39.4799L40.3499 23.55C40.3499 23.55 40.6899 22.87 40.8399 22.64C40.9875 22.4347 41.1886 22.2739 41.4214 22.1751C41.6542 22.0764 41.9097 22.0435 42.1599 22.08H42.3499C42.2659 22.6528 42.2258 23.2311 42.2299 23.81C42.2299 26.75 43.8899 28.59 46.4499 28.59C47.1506 28.5884 47.8475 28.4874 48.5199 28.29L48.9399 25.73C48.3349 26.0964 47.6466 26.3029 46.9399 26.33C45.5499 26.33 44.7199 25.33 44.7199 23.62C44.7199 21.17 45.9599 19.44 47.7199 19.44H47.7299Z" fill="#003473"/>
<path fill-rule="evenodd" clip-rule="evenodd" d="M67.7401 17.29L67.2101 20.46C67.0024 20.071 66.6923 19.7462 66.3134 19.5206C65.9345 19.295 65.5011 19.1772 65.0601 19.18C64.3983 19.1977 63.7548 19.4012 63.2031 19.7673C62.6514 20.1333 62.2137 20.6471 61.9401 21.25L60.4301 20.35L60.5801 19.4H58.0601L56.6201 28.45H59.0001L59.7901 23.59C59.7901 23.59 60.3901 22.91 60.5401 22.68C60.6688 22.5188 60.8294 22.3859 61.0117 22.2895C61.1941 22.1932 61.3944 22.1355 61.6001 22.12C61.3166 22.9812 61.1781 23.8835 61.1901 24.79C61.1901 27.05 62.3501 28.56 64.0901 28.56C64.5056 28.5703 64.918 28.4855 65.2958 28.3122C65.6736 28.1389 66.0068 27.8816 66.2701 27.56L66.1601 28.47H68.3801L70.1901 17.35L67.7401 17.29ZM64.8401 26.29C64.0501 26.29 63.6301 25.69 63.6301 24.52C63.6301 22.75 64.3901 21.52 65.4801 21.52C66.3101 21.52 66.7201 22.16 66.7201 23.29C66.7201 25.1 65.9701 26.34 64.8401 26.34V26.29Z" fill="#003473"/>
<path fill-rule="evenodd" clip-rule="evenodd" d="M54.0001 24.38C53.8506 24.3631 53.6996 24.3631 53.5501 24.38C52.1901 24.38 51.5501 24.9 51.5501 25.73C51.5373 25.8511 51.5504 25.9735 51.5885 26.0892C51.6266 26.2049 51.6889 26.3111 51.7711 26.4009C51.8534 26.4908 51.9537 26.5621 52.0656 26.6102C52.1775 26.6583 52.2983 26.6821 52.4201 26.68C53.5501 26.68 54.0001 25.73 54.0401 24.42L54.0001 24.38ZM55.8801 28.38H53.7601L53.8401 27.43C53.5548 27.8122 53.1758 28.1143 52.7395 28.307C52.3033 28.4997 51.8247 28.5765 51.3501 28.53C51.0411 28.5164 50.7381 28.4403 50.4594 28.3063C50.1806 28.1724 49.9319 27.9834 49.7282 27.7507C49.5244 27.518 49.37 27.2465 49.2741 26.9525C49.1781 26.6584 49.1428 26.3481 49.1701 26.04C49.1701 23.89 50.7801 22.57 53.3501 22.57C53.6832 22.5517 54.017 22.5517 54.3501 22.57C54.4183 22.3767 54.4588 22.1747 54.4701 21.97C54.4701 21.37 53.9801 21.18 52.8501 21.18C52.1718 21.174 51.4968 21.2753 50.8501 21.48L50.5501 21.55H50.4001L50.7301 19.55C51.6184 19.2419 52.55 19.0765 53.4901 19.06C55.4901 19.06 56.5701 20 56.5701 21.73C56.6163 22.3222 56.5792 22.918 56.4601 23.5L56.0001 26.82L55.9301 27.39L55.8501 27.84V28.14V28.41L55.8801 28.38Z" fill="#003473"/>
<path fill-rule="evenodd" clip-rule="evenodd" d="M23.47 21.29C24.0632 21.2895 24.6554 21.3397 25.24 21.44L25.58 19.33C24.9 19.25 24 19.14 23.47 19.14C20.83 19.14 19.97 20.57 19.97 22.23C19.962 22.7781 20.1294 23.3144 20.4479 23.7606C20.7663 24.2068 21.2191 24.5394 21.74 24.71C22.68 25.17 22.83 25.24 22.83 25.66C22.83 26.08 22.34 26.56 21.44 26.56C20.7064 26.5628 19.9782 26.4341 19.29 26.18L19 28.25L19.45 28.33C19.61 28.33 19.79 28.4 20.06 28.44C20.62 28.44 21.11 28.52 21.41 28.52C24.05 28.52 25.14 27.52 25.14 25.52C25.1608 24.9726 25.0061 24.4328 24.6985 23.9795C24.3908 23.5261 23.9464 23.1829 23.43 23C22.43 22.55 22.3 22.47 22.3 22.06C22.3 21.65 22.75 21.27 23.47 21.27V21.29Z" fill="#003473"/>
<path fill-rule="evenodd" clip-rule="evenodd" d="M50.9 16.92L50.48 19.33C49.8381 18.9547 49.113 18.7451 48.37 18.72C46.6 18.72 45.37 20.46 45.37 22.91C45.37 24.6 46.2 25.62 47.59 25.62C48.2915 25.5859 48.9758 25.3908 49.59 25.05L49.18 27.58C48.5042 27.7824 47.805 27.8967 47.1 27.92C44.54 27.92 42.96 26.07 42.96 23.09C42.96 19.14 45.14 16.35 48.27 16.35C48.6362 16.3466 49.0018 16.3835 49.36 16.46L50.31 16.69L50.91 16.92H50.9Z" fill="white"/>
<path fill-rule="evenodd" clip-rule="evenodd" d="M43.29 18.57H43.06C42.27 18.57 41.82 18.95 41.06 20.04L41.29 18.65H39.18L37.71 27.65H40.09C40.95 22.11 41.18 21.17 42.31 21.17H42.46C42.6334 20.2646 42.9366 19.3889 43.36 18.57H43.29Z" fill="white"/>
<path fill-rule="evenodd" clip-rule="evenodd" d="M29.65 27.58C29.105 27.7778 28.5298 27.8793 27.95 27.88C27.6864 27.9044 27.4208 27.8684 27.1732 27.7747C26.9257 27.681 26.7028 27.532 26.5215 27.3392C26.3402 27.1463 26.2053 26.9146 26.1271 26.6618C26.0488 26.4089 26.0293 26.1416 26.07 25.88C26.0788 25.6152 26.1055 25.3512 26.15 25.09L26.3 24.19L26.41 23.47L27.41 17.29H29.74L29.48 18.65H30.68L30.38 20.87H29.2L28.56 24.64C28.5418 24.766 28.5418 24.894 28.56 25.02C28.56 25.47 28.79 25.66 29.35 25.66C29.5666 25.6804 29.7851 25.6531 29.99 25.58L29.69 27.58H29.65Z" fill="white"/>
<path fill-rule="evenodd" clip-rule="evenodd" d="M20.5699 21.51C20.5734 22.0566 20.7451 22.5889 21.0618 23.0344C21.3785 23.48 21.8248 23.8171 22.3399 24C23.3399 24.45 23.4699 24.6 23.4699 25C23.4699 25.56 23.0599 25.82 22.1099 25.82C21.3944 25.8218 20.6828 25.7139 19.9999 25.5L19.6699 27.58H19.7799L20.1899 27.65C20.3985 27.7063 20.6139 27.7333 20.8299 27.73C21.2545 27.7825 21.6822 27.8059 22.1099 27.8C24.5999 27.8 25.7699 26.86 25.7699 24.8C25.8061 24.2551 25.6636 23.7133 25.364 23.2567C25.0645 22.8002 24.6242 22.4537 24.1099 22.27C23.1099 21.82 22.9799 21.71 22.9799 21.27C22.9799 20.83 23.3999 20.56 24.1499 20.56C24.715 20.5615 25.2794 20.5982 25.8399 20.67L26.1799 18.6C25.4956 18.4855 24.8037 18.422 24.1099 18.41C21.4699 18.41 20.5299 19.8 20.5699 21.46V21.51Z" fill="white"/>
<path fill-rule="evenodd" clip-rule="evenodd" d="M69 27.69H66.72L66.83 26.82C66.5634 27.1378 66.2295 27.3923 65.8525 27.5652C65.4755 27.7382 65.0648 27.8252 64.65 27.82C62.92 27.82 61.79 26.35 61.79 24.09C61.79 21.09 63.56 18.52 65.63 18.52C66.0803 18.5219 66.5229 18.6363 66.9176 18.8529C67.3123 19.0694 67.6466 19.3813 67.89 19.76L68.42 16.6H70.75L69 27.69ZM65.53 25.58C66.62 25.58 67.37 24.3 67.37 22.58C67.37 21.41 66.96 20.81 66.13 20.81C65.13 20.81 64.29 22.05 64.29 23.81C64.29 25.02 64.7 25.62 65.53 25.62V25.58Z" fill="white"/>
<path fill-rule="evenodd" clip-rule="evenodd" d="M36.8802 27.5C36.09 27.7606 35.2622 27.889 34.4302 27.88C31.8002 27.88 30.4302 26.49 30.4302 23.81C30.4302 20.72 32.1602 18.42 34.5402 18.42C34.9753 18.3889 35.412 18.4531 35.8198 18.6081C36.2276 18.7631 36.5967 19.0051 36.9013 19.3174C37.206 19.6297 37.4389 20.0046 37.5837 20.4161C37.7286 20.8276 37.782 21.2658 37.7402 21.7C37.7325 22.4628 37.6318 23.2217 37.4402 23.96H32.7802C32.7635 24.0459 32.7635 24.1342 32.7802 24.22C32.7802 25.28 33.4902 25.81 34.8502 25.81C35.7015 25.8267 36.5436 25.6308 37.3002 25.24L36.9202 27.5H36.8802ZM35.5602 22.12V21.66C35.5871 21.5043 35.5768 21.3445 35.53 21.1935C35.4833 21.0426 35.4014 20.9049 35.2911 20.7917C35.1809 20.6785 35.0454 20.5931 34.8957 20.5424C34.7461 20.4917 34.5865 20.4772 34.4302 20.5C33.6802 20.5 33.1502 21.06 32.9302 22.12H35.5602Z" fill="white"/>
<path fill-rule="evenodd" clip-rule="evenodd" d="M11.5599 27.69H9.22986L10.5899 19.14L7.52986 27.69H5.90986L5.72986 19.21L4.28986 27.69H2.10986L3.95986 16.58H7.34986L7.45986 23.47L9.71986 16.58H13.4099L11.5599 27.69Z" fill="white"/>
<path fill-rule="evenodd" clip-rule="evenodd" d="M17.4099 23.66C17.1799 23.66 17.0699 23.66 16.8799 23.66C15.5599 23.66 14.8799 24.15 14.8799 25.06C14.8633 25.176 14.8728 25.2943 14.9077 25.4062C14.9425 25.5181 15.0018 25.6209 15.0812 25.707C15.1607 25.7932 15.2583 25.8606 15.3671 25.9043C15.4758 25.9481 15.5929 25.9671 15.7099 25.96C16.7099 25.96 17.3699 25.06 17.4099 23.7V23.66ZM19.1399 27.66H17.1399V26.72C16.8399 27.0849 16.4581 27.3738 16.0254 27.5632C15.5927 27.7526 15.1214 27.8371 14.6499 27.81C14.3424 27.8066 14.0391 27.7384 13.7597 27.61C13.4803 27.4816 13.2311 27.2957 13.0283 27.0646C12.8255 26.8335 12.6736 26.5623 12.5826 26.2686C12.4915 25.9749 12.4634 25.6653 12.4999 25.36C12.4999 23.14 14.0099 21.86 16.6499 21.86C16.9099 21.86 17.2499 21.86 17.6499 21.93C17.6996 21.7476 17.7231 21.559 17.7199 21.37C17.7199 20.76 17.3099 20.54 16.2199 20.54C15.5465 20.5264 14.8742 20.6004 14.2199 20.76L13.8799 20.88H13.6499L13.9899 18.88C14.9049 18.5872 15.8592 18.4354 16.8199 18.43C18.8199 18.43 19.9399 19.33 19.9399 21.07C19.924 21.6774 19.8604 22.2826 19.7499 22.88L19.2299 26.08L19.1499 26.64V27.09V27.43V27.66H19.1399Z" fill="white"/>
<path fill-rule="evenodd" clip-rule="evenodd" d="M54.7 23.66C54.44 23.66 54.33 23.66 54.17 23.66C52.82 23.66 52.17 24.15 52.17 25.06C52.1581 25.1785 52.1722 25.2983 52.2113 25.4108C52.2504 25.5234 52.3135 25.626 52.3963 25.7117C52.4791 25.7974 52.5796 25.8639 52.6908 25.9068C52.8019 25.9497 52.9211 25.9679 53.04 25.96C53.98 25.96 54.7 25.06 54.73 23.7L54.7 23.66ZM56.44 27.66H54.44V26.72C54.152 27.0876 53.7802 27.3811 53.3558 27.5759C52.9314 27.7707 52.4665 27.8613 52 27.84C51.6925 27.8366 51.3892 27.7684 51.1098 27.64C50.8304 27.5116 50.5812 27.3257 50.3784 27.0946C50.1756 26.8635 50.0237 26.5923 49.9327 26.2986C49.8416 26.0049 49.8135 25.6953 49.85 25.39C49.85 23.17 51.36 21.89 54 21.89C54.26 21.89 54.6 21.89 54.94 21.96C54.9969 21.7779 55.0338 21.5901 55.05 21.4C55.05 20.79 54.64 20.57 53.54 20.57C52.8667 20.5589 52.1947 20.6328 51.54 20.79L51.24 20.91H51.01L51.35 18.91C52.2617 18.6179 53.2126 18.4661 54.17 18.46C56.17 18.46 57.26 19.36 57.26 21.1C57.2652 21.7086 57.2014 22.3158 57.07 22.91L56.58 26.11L56.51 26.67L56.43 27.12V27.46V27.69L56.44 27.66Z" fill="white"/>
<path fill-rule="evenodd" clip-rule="evenodd" d="M62.77 18.57H62.54C61.75 18.57 61.3 18.95 60.54 20.04L60.77 18.65H58.66L57.23 27.65H59.56C60.43 22.11 60.66 21.17 61.79 21.17H61.94C62.1088 20.2634 62.4122 19.387 62.84 18.57H62.77Z" fill="white"/>
</g>
<defs>
<clipPath id="clip0">
<rect width="72.9" height="43.89" fill="white"/>
</clipPath>
</defs>
</svg>
