<svg width="50" height="52" viewBox="0 0 50 52" fill="none" xmlns="http://www.w3.org/2000/svg">
<path d="M47.2222 35.9195C43.7639 35.9195 40.4167 35.3448 37.3056 34.2816C36.3472 33.9655 35.25 34.1954 34.4861 34.9856L28.375 41.3218C20.5 37.1839 14.0833 30.5316 10.0694 22.3994L16.1806 16.0488C16.9444 15.2586 17.1667 14.1236 16.8611 13.1322C15.8333 9.91379 15.2778 6.45115 15.2778 2.87356C15.2778 1.27874 14.0417 0 12.5 0H2.77778C1.25 0 0 1.27874 0 2.87356C0 29.8563 21.1389 51.7241 47.2222 51.7241C48.7639 51.7241 50 50.4454 50 48.8506V38.7931C50 37.1983 48.7639 35.9195 47.2222 35.9195ZM25 0V28.7356L33.3333 20.1149H50V0H25Z" fill="#3179B4"/>
</svg>
