<svg width="120" height="39" viewBox="0 0 120 39" fill="none" xmlns="http://www.w3.org/2000/svg">
<g clip-path="url(#clip0)">
<path d="M51.71 38.05H41.98L48.06 0.669998H57.79L51.71 38.05Z" fill="#0066B2"/>
<path d="M33.79 0.669998L24.51 26.38L23.41 20.84L20.14 4C20.14 4 19.74 0.669998 15.52 0.669998H0.18L0 1.3C3.59091 2.20166 7.02359 3.64487 10.18 5.58L18.64 38.05H28.78L44.26 0.669998H33.79Z" fill="#0066B2"/>
<path d="M110.34 38.05H119.28L111.49 0.669998H103.66C102.712 0.597178 101.766 0.828424 100.958 1.33015C100.151 1.83187 99.5244 2.57795 99.1699 3.46L84.6499 38.05H94.7999L96.7999 32.5H109.2L110.34 38.05ZM99.6299 24.83L104.75 10.83L107.62 24.83H99.6299Z" fill="#0066B2"/>
<path d="M85.42 9.66L86.8 1.66C83.9905 0.643382 81.0365 0.0829609 78.05 0C73.22 0 61.75 2.11 61.75 12.38C61.75 22.04 75.21 22.16 75.21 27.23C75.21 32.3 63.14 31.39 59.15 28.23L57.71 36.62C61.1892 38.0842 64.9357 38.8063 68.71 38.74C75.35 38.74 85.37 35.3 85.37 25.94C85.37 16.22 71.79 15.31 71.79 11.09C71.79 6.87 81.25 7.36 85.42 9.66Z" fill="#0066B2"/>
<path d="M23.41 20.85L20.14 4C20.14 4 19.74 0.669998 15.52 0.669998H0.18L0 1.3C5.28292 2.6469 10.2122 5.12006 14.45 8.55C18.4727 11.7847 21.5647 16.0292 23.41 20.85Z" fill="#F9A533"/>
</g>
<defs>
<clipPath id="clip0">
<rect width="119.28" height="38.7" fill="white"/>
</clipPath>
</defs>
</svg>
