<svg width="69" height="60" viewBox="0 0 69 60" fill="none" xmlns="http://www.w3.org/2000/svg">
<path d="M60.3586 39.2354C58.4116 44.6016 54.854 49.2352 50.1727 52.502C45.4913 55.7689 39.9148 57.5094 34.2063 57.4854C28.4978 57.4614 22.9362 55.6741 18.2825 52.368C13.6287 49.0619 10.1103 44.3986 8.2085 39.0161" stroke="#3179B4" stroke-width="4" stroke-linecap="round" stroke-linejoin="round"/>
<path d="M8.26636 20.2979C10.2075 14.917 13.7671 10.2692 18.4562 6.99285C23.1453 3.71654 28.7339 1.9725 34.4541 2.00033C40.1743 2.02815 45.7456 3.82647 50.4026 7.14824C55.0596 10.47 58.5739 15.1523 60.4626 20.5518" stroke="#3179B4" stroke-width="4" stroke-linecap="round" stroke-linejoin="round"/>
<path d="M46.222 39.3968C44.4332 49.956 39.771 57.4802 34.3125 57.4802C28.854 57.4802 24.1341 49.8522 22.3684 39.1775" stroke="#3179B4" stroke-width="4" stroke-linecap="round" stroke-linejoin="round"/>
<path d="M22.3108 20.5517C24.0303 9.70392 28.7502 2.0874 34.3126 2.0874C39.8749 2.0874 44.5256 9.77316 46.2797 20.5517" stroke="#3179B4" stroke-width="4" stroke-linecap="round" stroke-linejoin="round"/>
<path d="M64.317 20.5518H4.30804C3.03334 20.5518 2 21.5851 2 22.8598V36.708C2 37.9827 3.03334 39.016 4.30804 39.016H64.317C65.5917 39.016 66.625 37.9827 66.625 36.708V22.8598C66.625 21.5851 65.5917 20.5518 64.317 20.5518Z" stroke="#3179B4" stroke-width="4" stroke-linecap="round" stroke-linejoin="round"/>
<path d="M28.623 27.0603L31.4619 33.4651L34.3124 28.399L37.1628 33.4651L40.0017 27.0603" stroke="#3179B4" stroke-width="4" stroke-linecap="round" stroke-linejoin="round"/>
<path d="M12.4668 27.0603L15.3057 33.4651L18.1561 28.399L21.0065 33.4651L23.8454 27.0603" stroke="#3179B4" stroke-width="4" stroke-linecap="round" stroke-linejoin="round"/>
<path d="M44.7793 27.0603L47.6182 33.4651L50.4686 28.399L53.319 33.4651L56.1579 27.0603" stroke="#3179B4" stroke-width="4" stroke-linecap="round" stroke-linejoin="round"/>
</svg>
